<svg width="459" height="530" viewBox="0 0 459 530" fill="none" xmlns="http://www.w3.org/2000/svg">
<path d="M229.489 530.317C356.232 530.317 458.977 525.392 458.977 519.317C458.977 513.242 356.232 508.317 229.489 508.317C102.746 508.317 0 513.242 0 519.317C0 525.392 102.746 530.317 229.489 530.317Z" fill="#8AD988" fill-opacity="0.85"/>
<path d="M228.922 296.521L246.214 363.767C246.214 363.767 246.854 411.159 250.697 429.731C254.539 448.304 267.348 493.134 267.348 493.134L282.718 495.696L279.516 432.934C279.516 432.934 279.516 395.148 276.314 386.822C273.112 378.497 266.707 293.319 266.707 293.319L228.922 296.521Z" fill="#FFB8B8"/>
<path opacity="0.1" d="M228.922 296.521L246.214 363.767C246.214 363.767 246.854 411.159 250.697 429.731C254.539 448.304 267.348 493.134 267.348 493.134L282.718 495.696L279.516 432.934C279.516 432.934 279.516 395.148 276.314 386.822C273.112 378.497 266.707 293.319 266.707 293.319L228.922 296.521Z" fill="black"/>
<path d="M276.863 14.6685H276.863C255.516 14.6685 238.21 33.8739 238.21 57.565V87.6648H247.467L252.827 76.5125L251.487 87.6648H310.989L315.862 77.5264L314.644 87.6648H321.343V64.031C321.343 36.7689 301.429 14.6685 276.863 14.6685Z" fill="#2F2E41"/>
<path d="M212.591 285.954C212.591 285.954 204.906 318.616 215.153 321.818C225.4 325.02 222.838 285.954 222.838 285.954H212.591Z" fill="#FFB8B8"/>
<path d="M225.4 120.081L220.276 125.845L221.557 236.64L210.029 289.156L235.647 291.718L248.455 186.046L244.613 132.25L225.4 120.081Z" fill="#3F3D56"/>
<path opacity="0.1" d="M225.4 120.081L220.276 125.845L221.557 236.64L210.029 289.156L235.647 291.718L248.455 186.046L244.613 132.25L225.4 120.081Z" fill="black"/>
<path d="M273.443 83.4589C288.64 83.4589 300.96 71.139 300.96 55.9417C300.96 40.7444 288.64 28.4246 273.443 28.4246C258.246 28.4246 245.926 40.7444 245.926 55.9417C245.926 71.139 258.246 83.4589 273.443 83.4589Z" fill="#FFB8B8"/>
<path d="M257.667 72.452C257.667 72.452 265.738 114.278 262.069 118.681C258.4 123.084 300.96 110.609 300.96 110.609C300.96 110.609 287.018 81.9913 294.356 65.8479L257.667 72.452Z" fill="#FFB8B8"/>
<path d="M327.229 255.854C327.229 255.854 334.914 288.516 324.667 291.718C314.42 294.92 316.982 255.854 316.982 255.854H327.229Z" fill="#FFB8B8"/>
<path d="M267.989 288.836C267.989 288.836 257.101 354.16 257.742 363.767C258.382 373.373 257.742 374.654 257.742 374.654C257.742 374.654 246.854 402.833 243.652 418.844C240.45 434.855 233.405 455.349 233.405 455.349C233.405 455.349 225.079 473.921 232.124 473.921C239.169 473.921 248.776 471.36 248.776 471.36C248.75 463.962 251.234 456.775 255.82 450.97C263.506 441.259 286.561 395.788 286.561 390.024C286.561 384.261 290.404 367.609 290.404 367.609L305.134 296.521L267.989 288.836Z" fill="#FFB8B8"/>
<path d="M223.158 245.286C223.158 245.286 212.271 300.364 221.877 301.645C231.484 302.925 244.933 293.319 262.224 304.206C279.516 315.094 308.336 312.532 308.336 312.532C308.336 312.532 328.189 261.938 310.257 249.769C292.325 237.601 223.158 245.286 223.158 245.286Z" fill="#2F2E41"/>
<path d="M235.327 466.236C238.145 465.009 241.243 464.567 244.293 464.955C247.211 465.388 250.185 464.702 252.618 463.034C252.618 463.034 247.495 481.607 248.135 488.651C248.776 495.696 246.214 525.797 232.765 522.594C219.316 519.392 215.473 509.786 220.597 493.134C225.72 476.483 224.439 457.27 224.439 457.27C224.439 457.27 233.786 447.616 235.517 448.92C237.248 450.225 235.327 466.236 235.327 466.236Z" fill="#2F2E41"/>
<path d="M278.235 489.932C278.235 489.932 271.831 475.843 264.146 488.651C256.461 501.46 255.82 504.662 255.82 504.662C255.82 504.662 234.045 524.516 249.416 526.437C264.786 528.358 276.954 525.797 276.954 522.594C276.954 519.392 284.64 520.033 285.28 517.471C285.921 514.909 283.999 491.213 283.999 491.213L278.235 489.932Z" fill="#2F2E41"/>
<path d="M292.646 93.8235C292.646 93.8235 265.747 98.947 262.545 98.3065C261.824 98.1792 261.094 98.1018 260.362 98.075C254.1 97.7903 247.889 99.3304 242.486 102.508C233.567 107.689 220.276 116.908 220.276 125.845C220.276 139.294 237.568 162.35 237.568 162.35C237.568 162.35 221.557 217.427 222.838 222.551C224.119 227.674 213.232 244.966 220.276 250.73C227.321 256.494 294.567 250.73 306.735 256.494C318.903 262.258 313.139 179.642 313.139 179.642C313.139 179.642 345.802 104.711 329.15 97.6661C323.762 95.3865 319.112 93.6434 315.286 92.3283C311.602 91.0603 307.703 90.5394 303.815 90.7961C299.928 91.0529 296.131 92.0821 292.646 93.8235V93.8235Z" fill="#3F3D56"/>
<path d="M317.622 98.3066L332.318 100.735C332.318 100.735 338.757 107.273 338.757 110.475C338.757 113.677 337.476 252.011 335.555 256.494C333.633 260.977 312.499 259.056 312.499 259.056L316.342 180.282L317.622 98.3066Z" fill="#3F3D56"/>
<path d="M287.851 26.4851C285.991 23.9874 283.581 21.9518 280.807 20.5363C278.033 19.1207 274.97 18.3633 271.856 18.3228H271.097C256.466 18.3228 244.604 31.5628 244.604 47.8951V47.8951H249.507L250.299 41.8684L251.46 47.8951H280.537L282.974 42.7964L282.364 47.8951H288.085C290.754 61.1517 286.919 74.4083 276.579 87.6649H286.323L291.195 77.4675L289.977 87.6649H308.553L312.207 64.2109C312.207 46.646 302.001 31.7513 287.851 26.4851Z" fill="#2F2E41"/>
<path d="M293.192 28.9548C301.188 28.9548 307.67 22.473 307.67 14.4774C307.67 6.48175 301.188 0 293.192 0C285.197 0 278.715 6.48175 278.715 14.4774C278.715 22.473 285.197 28.9548 293.192 28.9548Z" fill="#2F2E41"/>
</svg>
