<svg width="706" height="748" viewBox="0 0 706 748" fill="none" xmlns="http://www.w3.org/2000/svg">
<g clip-path="url(#clip0)">
<rect width="706" height="748" fill="#673AB7"/>
<path d="M672.788 705.035C668.387 706.503 663.662 706.871 659.068 706.103C654.473 705.335 650.165 703.456 646.558 700.649C637.371 693.33 634.487 681.272 632.147 670.106L625.215 637.08L639.728 646.566C650.165 653.388 660.836 660.428 668.063 670.309C675.29 680.19 678.444 693.678 672.638 704.369" fill="#7FD387"/>
<path d="M671.547 745.019C673.016 734.862 674.527 724.576 673.496 714.311C672.581 705.195 669.652 696.291 663.685 688.989C660.519 685.121 656.666 681.807 652.299 679.196C651.16 678.515 650.113 680.227 651.246 680.905C658.801 685.437 664.645 692.13 667.934 700.017C671.567 708.789 672.151 718.351 671.52 727.668C671.141 733.302 670.339 738.899 669.53 744.491C669.464 744.744 669.504 745.011 669.639 745.238C669.775 745.464 669.996 745.633 670.259 745.71C670.526 745.778 670.81 745.744 671.05 745.614C671.291 745.485 671.467 745.27 671.542 745.018L671.547 745.019Z" fill="#943C51" fill-opacity="0.8"/>
<path d="M619 576H42V0H619V576Z" fill="#7061B6"/>
<path d="M619 568C619 572.418 615.418 576 611 576H50C45.5817 576 42 572.418 42 568V8C42 3.58173 45.5817 0 50 0H611C615.418 0 619 3.58172 619 8V568ZM50.5251 559.49C50.5251 563.908 54.1068 567.49 58.5251 567.49H602.475C606.893 567.49 610.475 563.908 610.475 559.49V16.5104C610.475 12.0921 606.893 8.51036 602.475 8.51036H58.5251C54.1068 8.51036 50.5251 12.0921 50.5251 16.5104V559.49Z" fill="#E5E5E5"/>
<path d="M511.384 90.167H248.453V97.9414H511.384V90.167Z" fill="#E5E5E5"/>
<path d="M511.384 110.38H248.453V118.155H511.384V110.38Z" fill="#E5E5E5"/>
<path d="M511.384 130.594H248.453V138.368H511.384V130.594Z" fill="#E5E5E5"/>
<path d="M511.384 263.735H248.453V271.509H511.384V263.735Z" fill="#E5E5E5"/>
<path d="M511.384 283.948H248.453V291.723H511.384V283.948Z" fill="#E5E5E5"/>
<path d="M511.384 304.162H248.453V311.936H511.384V304.162Z" fill="#E5E5E5"/>
<path d="M511.384 437.303H248.453V445.078H511.384V437.303Z" fill="#E5E5E5"/>
<path d="M511.384 457.517H248.453V465.291H511.384V457.517Z" fill="#E5E5E5"/>
<path d="M511.384 477.73H248.453V485.504H511.384V477.73Z" fill="#E5E5E5"/>
<path d="M143.195 152.109C138.703 149.862 134.015 147.989 129.182 146.512L128.566 140.041L103.574 137.485L100.398 145.756L91.4294 148.95C91.1084 149.066 90.8029 149.217 90.5192 149.4H90.5095C90.009 149.721 89.5827 150.136 89.2567 150.619C88.9307 151.101 88.7118 151.642 88.6133 152.208C88.5176 152.771 88.5402 153.346 88.68 153.9L89.1541 155.745C89.8365 156.132 90.5382 156.501 91.2396 156.852L91.6854 157.068C92.7094 157.572 93.7524 158.049 94.8236 158.489C95.0416 158.579 95.2786 158.669 95.4967 158.759C95.5157 158.768 95.5249 158.768 95.5439 158.777C96.0467 158.975 96.5489 159.164 97.0609 159.344C98.7427 159.954 100.458 160.477 102.199 160.91C106.644 162.035 111.224 162.603 115.824 162.602C117.502 162.602 119.161 162.53 120.801 162.377C124.549 162.049 128.248 161.34 131.837 160.262C131.846 160.262 131.856 160.253 131.865 160.253C134.132 159.568 136.346 158.735 138.492 157.761C138.502 157.752 138.521 157.752 138.53 157.743C139.014 157.527 139.478 157.293 139.953 157.068L140.18 156.96C140.559 156.771 140.939 156.582 141.318 156.384C142.266 155.889 143.195 155.367 144.114 154.809C144.37 154.665 144.617 154.512 144.873 154.35C145.233 154.125 145.593 153.891 145.944 153.648C145.062 153.108 144.143 152.595 143.195 152.109Z" fill="#E2DB95"/>
<path d="M96.293 156.096L94.7287 149.391H90.6424C90.6012 149.392 90.5601 149.395 90.5193 149.4H90.5096C89.0411 149.518 87.6269 149.982 86.3951 150.75C85.5596 151.257 84.8167 151.889 84.1957 152.622C85.409 153.495 86.67 154.305 87.969 155.079L88.026 155.106C88.3954 155.322 88.775 155.538 89.1542 155.745C89.8366 156.132 90.5383 156.501 91.2397 156.852L91.6855 157.068C92.7095 157.572 93.7525 158.049 94.8237 158.489C95.0417 158.58 95.2788 158.669 95.4968 158.759C95.5158 158.768 95.5251 158.769 95.544 158.778C96.0468 158.976 96.5491 159.164 97.0611 159.344L96.293 156.096Z" fill="#3F3D56"/>
<path d="M115.089 133.394C125.03 133.394 133.088 125.745 133.088 116.31C133.088 106.874 125.03 99.2251 115.089 99.2251C105.149 99.2251 97.0903 106.874 97.0903 116.31C97.0903 125.745 105.149 133.394 115.089 133.394Z" fill="#FFB8B8"/>
<path d="M103.005 107.988C104.868 110.081 108.021 110.672 110.93 110.914C117.731 111.271 124.551 110.742 131.2 109.343C131.612 113.134 130.489 117.221 132.841 120.339C133.943 116.564 134.585 112.681 134.752 108.767C134.927 107.088 134.696 105.392 134.076 103.811C133.745 103.018 133.186 102.329 132.462 101.823C131.739 101.317 130.881 101.014 129.985 100.948C131.326 99.9822 132.897 99.3448 134.559 99.0918L128.844 96.3656L130.311 94.9355L119.965 94.3345L122.961 92.5273C118.451 91.939 113.888 91.8023 109.347 92.1194C107.225 92.1203 105.144 92.6695 103.326 93.7081C101.618 94.8677 100.63 97.1724 101.691 98.8749C100.363 99.0819 99.113 99.6071 98.059 100.401C97.0049 101.195 96.1818 102.231 95.6677 103.411C95.0175 105.287 94.8606 107.286 95.2105 109.233C95.6003 112.356 96.3651 115.427 97.4899 118.386L103.005 107.988Z" fill="#2F2E41"/>
<path d="M165.702 97.7896C163.177 90.9033 159.099 84.6227 153.754 79.3859C148.409 74.149 141.924 70.082 134.753 67.4683C127.581 64.8547 119.896 63.7574 112.232 64.2529C104.568 64.7484 97.1096 66.8248 90.3778 70.3373C83.646 73.8498 77.8024 78.7139 73.2545 84.5903C68.7067 90.4668 65.564 97.2141 64.0457 104.362C62.5273 111.51 62.6699 118.886 64.4634 125.976C66.2569 133.066 69.6582 139.699 74.4301 145.414C74.9041 145.98 75.3972 146.547 75.8999 147.096C75.9379 147.132 75.9661 147.168 76.0041 147.204C77.2399 148.556 78.5533 149.842 79.9385 151.056C80.2991 151.371 80.6783 151.695 81.0574 152.001C81.7777 152.613 82.5175 153.198 83.2855 153.756C83.5887 153.981 83.8826 154.206 84.1956 154.422C85.4089 155.295 86.67 156.105 87.969 156.879L88.0259 156.906C88.3953 157.122 88.7749 157.338 89.1541 157.544C89.8365 157.931 90.5383 158.3 91.2396 158.651L91.6854 158.867C92.7094 159.371 93.7524 159.848 94.8236 160.289C95.0417 160.379 95.2787 160.469 95.4968 160.559C95.5157 160.568 95.525 160.568 95.544 160.577C96.0467 160.775 96.549 160.964 97.061 161.144C98.7428 161.754 100.458 162.277 102.2 162.71C106.644 163.834 111.224 164.403 115.824 164.402C117.502 164.402 119.161 164.33 120.801 164.177C124.549 163.849 128.249 163.14 131.837 162.062C131.846 162.062 131.856 162.053 131.865 162.053C134.132 161.368 136.346 160.535 138.492 159.56C138.502 159.551 138.521 159.551 138.53 159.542C139.014 159.326 139.479 159.092 139.953 158.867L140.18 158.759C140.559 158.57 140.939 158.381 141.318 158.183C142.266 157.688 143.195 157.167 144.114 156.609C144.37 156.465 144.617 156.312 144.873 156.15C145.233 155.925 145.593 155.691 145.944 155.448C146.409 155.142 146.873 154.827 147.328 154.503C147.471 154.404 147.622 154.305 147.765 154.197C156.647 147.797 163.166 138.893 166.389 128.76C169.611 118.627 169.371 107.785 165.702 97.7896V97.7896ZM146.02 152.01C145.707 152.244 145.385 152.469 145.062 152.676C144.749 152.901 144.437 153.117 144.114 153.315C143.839 153.504 143.564 153.684 143.28 153.855L143.195 153.909C142.986 154.044 142.778 154.17 142.569 154.296C141.782 154.764 140.986 155.214 140.18 155.646L139.924 155.781C139.564 155.97 139.204 156.15 138.843 156.33C138.796 156.357 138.739 156.375 138.692 156.402L138.635 156.429C138.18 156.654 137.715 156.87 137.25 157.077C135.458 157.896 133.612 158.605 131.723 159.2C131.476 159.281 131.23 159.362 130.984 159.434C127.587 160.46 124.085 161.136 120.536 161.45C118.981 161.585 117.407 161.657 115.824 161.657C111.473 161.666 107.141 161.127 102.939 160.055C100.783 159.521 98.6699 158.841 96.6157 158.021C96.511 157.976 96.3972 157.94 96.293 157.895C96.1796 157.851 96.075 157.814 95.9708 157.769C95.8569 157.724 95.7527 157.68 95.6389 157.626C94.7477 157.257 93.8658 156.852 93.0034 156.429L92.5863 156.222C91.5336 155.7 90.5003 155.142 89.4953 154.548C89.2013 154.377 88.8981 154.197 88.6134 154.008C88.538 153.963 88.4713 153.918 88.3954 153.873C87.7223 153.45 87.0492 153.009 86.3951 152.55C85.9497 152.235 85.5039 151.92 85.0678 151.596C84.3378 151.074 83.636 150.516 82.9536 149.94C82.5934 149.652 82.2425 149.337 81.9014 149.04C80.5571 147.862 79.2845 146.612 78.09 145.297C77.6919 144.865 77.3031 144.433 76.9331 143.983C76.8491 143.894 76.7699 143.801 76.6961 143.704C70.5361 136.325 66.831 127.373 66.0531 117.987C65.2753 108.602 67.4601 99.2098 72.3288 91.0079C77.1975 82.8061 84.5296 76.1665 93.3899 71.9361C102.25 67.7057 112.237 66.076 122.077 67.255C131.917 68.434 141.164 72.3683 148.639 78.556C156.114 84.7436 161.478 92.9044 164.046 101.997C166.615 111.09 166.272 120.704 163.062 129.611C159.851 138.518 153.919 146.316 146.02 152.01L146.02 152.01Z" fill="#3F3D56"/>
<path d="M165.703 271.358C163.177 264.471 159.1 258.191 153.754 252.954C148.409 247.717 141.925 243.65 134.753 241.036C127.582 238.423 119.896 237.325 112.232 237.821C104.568 238.316 97.11 240.393 90.3782 243.905C83.6464 247.418 77.8028 252.282 73.255 258.158C68.7071 264.035 65.5644 270.782 64.0461 277.93C62.5278 285.078 62.6703 292.454 64.4638 299.544C66.2573 306.634 69.6586 313.267 74.4305 318.982C74.9045 319.549 75.3975 320.115 75.8998 320.664C75.9378 320.7 75.966 320.736 76.004 320.772C77.2401 322.124 78.5537 323.41 79.9389 324.624C80.299 324.939 80.6782 325.263 81.0573 325.569C81.7781 326.181 82.5174 326.766 83.2854 327.324C84.7849 328.446 86.3484 329.488 87.9689 330.447L88.0258 330.474C89.0781 331.095 90.1493 331.67 91.24 332.219L91.6853 332.435C92.7093 332.939 93.7523 333.416 94.8235 333.857C95.0416 333.947 95.2786 334.037 95.4966 334.127C95.5156 334.136 95.5253 334.136 95.5443 334.145C97.7089 335 99.9326 335.712 102.2 336.278C106.644 337.402 111.224 337.971 115.824 337.97C117.502 337.97 119.161 337.898 120.801 337.745C124.549 337.417 128.248 336.708 131.837 335.63C131.847 335.63 131.856 335.621 131.865 335.621C134.132 334.936 136.346 334.103 138.492 333.128C138.502 333.119 138.521 333.119 138.53 333.11C139.014 332.894 139.478 332.66 139.952 332.435L140.18 332.327C140.559 332.138 140.938 331.949 141.318 331.751C142.266 331.256 143.195 330.734 144.115 330.177C144.371 330.032 144.617 329.88 144.873 329.718C145.707 329.196 146.532 328.638 147.328 328.071C147.471 327.972 147.622 327.873 147.765 327.765C156.647 321.365 163.166 312.461 166.389 302.328C169.611 292.194 169.371 281.353 165.703 271.358V271.358Z" fill="#7061B6"/>
<path d="M133.253 308.502C137.625 308.502 141.169 305.138 141.169 300.988C141.169 296.839 137.625 293.475 133.253 293.475C128.881 293.475 125.338 296.839 125.338 300.988C125.338 305.138 128.881 308.502 133.253 308.502Z" fill="#2F2E41"/>
<path d="M135.458 293.682C136.828 293.682 138.175 294.019 139.366 294.661C140.558 295.303 141.553 296.228 142.256 297.344C142.958 298.461 143.343 299.731 143.373 301.032C143.403 302.332 143.077 303.617 142.427 304.762C143.113 303.947 143.613 303.005 143.894 301.996C144.175 300.988 144.233 299.935 144.062 298.904C143.891 297.874 143.495 296.888 142.901 296.011C142.307 295.133 141.526 294.383 140.61 293.807C139.693 293.232 138.66 292.844 137.577 292.668C136.493 292.493 135.383 292.533 134.317 292.787C133.251 293.041 132.253 293.503 131.385 294.144C130.518 294.784 129.8 295.589 129.279 296.507C130.019 295.626 130.959 294.913 132.029 294.424C133.099 293.935 134.272 293.681 135.459 293.682L135.458 293.682Z" fill="#2F2E41"/>
<path d="M118.461 300.972C131.303 300.972 141.714 291.09 141.714 278.9C141.714 266.711 131.303 256.829 118.461 256.829C105.619 256.829 95.2083 266.711 95.2083 278.9C95.2083 291.09 105.619 300.972 118.461 300.972Z" fill="#2F2E41"/>
<path d="M100.211 265.206C104.218 260.929 109.819 258.297 115.831 257.865C121.844 257.433 127.798 259.236 132.437 262.892C132.247 262.72 132.057 262.547 131.861 262.381C127.268 258.475 121.228 256.461 115.07 256.782C108.913 257.103 103.141 259.733 99.0264 264.093C94.9114 268.453 92.7897 274.186 93.128 280.031C93.4663 285.876 96.2369 291.354 100.83 295.26C100.874 295.297 100.919 295.334 100.963 295.372C101.16 295.538 101.363 295.696 101.565 295.855C97.1966 291.91 94.6135 286.509 94.3611 280.79C94.1087 275.072 96.2066 269.484 100.212 265.206L100.211 265.206Z" fill="#2F2E41"/>
<path d="M118.264 300.785C126.535 300.785 133.24 294.42 133.24 286.57C133.24 278.719 126.535 272.354 118.264 272.354C109.993 272.354 103.288 278.719 103.288 286.57C103.288 294.42 109.993 300.785 118.264 300.785Z" fill="#A0616A"/>
<path d="M145.063 323.607V328.377C144.143 328.935 143.214 329.457 142.266 329.952C141.887 330.15 141.507 330.339 141.128 330.528L140.901 330.636C140.426 330.861 139.962 331.095 139.478 331.311C139.469 331.32 139.45 331.32 139.44 331.329C137.294 332.303 135.08 333.136 132.813 333.821C132.804 333.821 132.795 333.83 132.785 333.83C129.197 334.908 125.497 335.617 121.749 335.945C120.109 336.098 118.45 336.17 116.772 336.17C112.172 336.171 107.592 335.603 103.148 334.478C100.881 333.913 98.657 333.2 96.4924 332.346C96.4734 332.337 96.4637 332.337 96.4447 332.328C96.2267 332.238 95.9896 332.148 95.7716 332.058C94.7004 331.617 93.6574 331.14 92.6334 330.636L92.1881 330.42C91.0974 329.871 90.0262 329.295 88.9739 328.674L88.917 328.647C87.2965 327.689 85.733 326.646 84.2335 325.524C83.4655 324.966 82.7262 324.381 82.0054 323.769C81.6263 323.463 81.2471 323.139 80.887 322.824C79.5018 321.61 78.1881 320.324 76.952 318.973C77.116 318.035 77.357 317.112 77.6728 316.21L77.6821 316.201C77.7388 316.047 77.8053 315.897 77.8811 315.751C77.9334 315.622 77.9936 315.496 78.0612 315.373C79.7583 312.358 82.8304 311.611 86.6417 311.449C88.7938 311.359 91.1733 311.458 93.6861 311.431C95.0133 311.422 96.3878 311.377 97.7627 311.26C106.438 310.513 104.864 305.654 105.253 303.035C105.641 300.497 108.05 302.693 108.211 302.837L108.22 302.846C113.129 305.027 118.56 305.931 123.958 305.465C124.887 305.357 125.816 305.294 126.746 305.267C129.192 305.24 128.661 305.906 127.817 306.455C127.408 306.711 126.98 306.939 126.537 307.139C126.537 307.139 126.148 309.389 125.75 312.754C125.371 315.976 131.875 317.488 132.415 317.605C132.426 317.612 132.44 317.615 132.453 317.614C134.828 317.029 137.329 317.092 139.668 317.794H139.678C141.014 318.26 142.207 319.037 143.147 320.052C144.088 321.067 144.746 322.289 145.063 323.607V323.607Z" fill="#FF63D3"/>
<path d="M96.5868 329.394C96.5868 330.06 96.5683 330.699 96.5396 331.302C96.5303 331.662 96.5114 332.013 96.4924 332.346C96.4734 332.337 96.4637 332.337 96.4447 332.328C96.2267 332.238 95.9896 332.148 95.7716 332.058C94.7004 331.617 93.6574 331.14 92.6334 330.636L92.1881 330.42C91.0974 329.871 90.0262 329.295 88.9739 328.674C89.0022 328.359 89.0498 328.044 89.097 327.729C89.2012 327.036 89.2868 326.334 89.3437 325.641C89.7165 320.773 88.787 315.894 86.6416 311.458V311.449C86.4518 311.089 86.3384 310.892 86.3384 310.892C86.3384 310.892 89.097 308.642 93.0315 310.892C93.2828 311.032 93.5047 311.215 93.686 311.431C96.0563 314.086 96.7007 323.013 96.5868 329.394Z" fill="#2F2E41"/>
<path d="M139.64 328.17C139.602 329.178 139.545 330.231 139.478 331.302V331.311C139.469 331.32 139.45 331.32 139.441 331.328C137.294 332.303 135.08 333.136 132.813 333.821C132.804 333.821 132.795 333.83 132.785 333.83L132.681 331.302L132.671 330.969L132.169 318.658C132.155 318.379 132.202 318.101 132.305 317.839C132.408 317.578 132.565 317.339 132.768 317.137C132.971 316.936 133.215 316.775 133.485 316.665C133.755 316.555 134.046 316.498 134.34 316.498H139.147C139.384 316.498 139.554 316.957 139.668 317.785V317.794C139.901 321.249 139.892 324.716 139.64 328.17V328.17Z" fill="#2F2E41"/>
<path d="M105.455 268.801V283.019H108.923L113.337 278.53L112.746 283.019H128.077L127.129 278.53L129.025 283.019H131.469V268.801H105.455Z" fill="#2F2E41"/>
<path d="M103.091 285.635C103.744 285.635 104.273 284.714 104.273 283.577C104.273 282.441 103.744 281.52 103.091 281.52C102.438 281.52 101.908 282.441 101.908 283.577C101.908 284.714 102.438 285.635 103.091 285.635Z" fill="#A0616A"/>
<path d="M133.438 285.635C134.091 285.635 134.62 284.714 134.62 283.577C134.62 282.441 134.091 281.52 133.438 281.52C132.785 281.52 132.256 282.441 132.256 283.577C132.256 284.714 132.785 285.635 133.438 285.635Z" fill="#A0616A"/>
<path d="M148.276 326.271C147.48 326.838 146.655 327.396 145.821 327.918C145.565 328.08 145.319 328.233 145.063 328.377C144.143 328.935 143.214 329.457 142.266 329.952C141.887 330.15 141.508 330.339 141.128 330.528V320.61C141.128 320.61 142.645 321.762 145.063 323.679C145.366 323.922 145.679 324.174 146.011 324.444C146.712 325.002 147.471 325.614 148.276 326.271Z" fill="#6C63FF"/>
<g filter="url(#filter0_d)">
<path d="M165.703 271.358C163.177 264.471 159.1 258.191 153.754 252.954C148.409 247.717 141.925 243.65 134.753 241.036C127.582 238.423 119.896 237.325 112.232 237.821C104.568 238.316 97.11 240.393 90.3782 243.905C83.6464 247.418 77.8028 252.282 73.255 258.158C68.7071 264.035 65.5644 270.782 64.0461 277.93C62.5278 285.078 62.6703 292.454 64.4638 299.544C66.2573 306.634 69.6586 313.267 74.4305 318.982C74.9045 319.549 75.3975 320.115 75.8998 320.664C75.9378 320.7 75.966 320.736 76.004 320.772C77.2401 322.124 78.5537 323.41 79.9389 324.624C80.299 324.939 80.6782 325.263 81.0573 325.569C81.7781 326.181 82.5174 326.766 83.2854 327.324C84.7849 328.446 86.3484 329.488 87.9689 330.447L88.0258 330.474C89.0781 331.095 90.1493 331.67 91.24 332.219L91.6853 332.435C92.7093 332.939 93.7523 333.416 94.8235 333.857C95.0416 333.947 95.2786 334.037 95.4966 334.127C95.5156 334.136 95.5253 334.136 95.5443 334.145C97.7089 335 99.9326 335.712 102.2 336.278C106.644 337.402 111.224 337.971 115.824 337.97C117.502 337.97 119.161 337.898 120.801 337.745C124.549 337.417 128.248 336.708 131.837 335.63C131.847 335.63 131.856 335.621 131.865 335.621C134.132 334.936 136.346 334.103 138.492 333.128C138.502 333.119 138.521 333.119 138.53 333.11C139.014 332.894 139.478 332.66 139.952 332.435L140.18 332.327C140.559 332.138 140.938 331.949 141.318 331.751C142.266 331.256 143.195 330.734 144.115 330.177C144.371 330.032 144.617 329.88 144.873 329.718C145.707 329.196 146.532 328.638 147.328 328.071C147.471 327.972 147.622 327.873 147.765 327.765C156.647 321.365 163.166 312.461 166.389 302.328C169.611 292.194 169.371 281.353 165.703 271.358V271.358ZM146.02 325.578C145.707 325.812 145.385 326.037 145.063 326.244C144.75 326.469 144.437 326.685 144.115 326.883C143.84 327.072 143.565 327.252 143.28 327.423C143.043 327.576 142.806 327.72 142.569 327.864C141.782 328.332 140.986 328.782 140.18 329.214L139.924 329.349C139.564 329.538 139.203 329.718 138.843 329.898C138.796 329.925 138.739 329.943 138.691 329.97L138.635 329.997C138.179 330.222 137.715 330.438 137.25 330.645C135.458 331.464 133.611 332.173 131.723 332.768C131.477 332.849 131.23 332.93 130.984 333.002C127.587 334.028 124.084 334.703 120.536 335.018C118.981 335.153 117.407 335.225 115.824 335.225C111.473 335.234 107.141 334.695 102.939 333.623C100.783 333.089 98.6698 332.409 96.6156 331.589C96.3975 331.508 96.1795 331.418 95.9707 331.337C95.8573 331.292 95.7527 331.247 95.6388 331.193C94.7476 330.824 93.8662 330.42 93.0033 329.997L92.5862 329.79C91.534 329.268 90.5002 328.71 89.4952 328.116C89.1258 327.9 88.7559 327.675 88.3957 327.441C87.2579 326.73 86.1487 325.965 85.0677 325.164C84.3377 324.642 83.6363 324.084 82.9535 323.508C82.5934 323.22 82.2424 322.905 81.9013 322.608C80.5571 321.43 79.2846 320.18 78.09 318.865C77.6918 318.433 77.303 318.001 76.9331 317.551C76.849 317.462 76.7699 317.369 76.696 317.272C70.5361 309.893 66.8309 300.941 66.0531 291.555C65.2752 282.17 67.46 272.778 72.3287 264.576C77.1975 256.374 84.5295 249.735 93.3898 245.504C102.25 241.274 112.237 239.644 122.077 240.823C131.917 242.002 141.164 245.936 148.639 252.124C156.114 258.312 161.477 266.472 164.046 275.565C166.615 284.658 166.272 294.272 163.062 303.179C159.851 312.086 153.918 319.884 146.02 325.578V325.578Z" fill="#48DF69"/>
<path d="M95.5443 334.145C97.7089 335 99.9326 335.712 102.2 336.278L131.198 333.734C127.76 334.761 124.217 335.438 120.626 335.753L120.615 335.754C120.61 335.754 120.606 335.754 120.601 335.755C120.601 335.755 120.6 335.755 120.6 335.755C119.031 335.901 117.44 335.97 115.825 335.97L115.827 337.225C115.826 337.225 115.825 337.225 115.824 337.225C115.823 337.225 115.823 337.225 115.823 337.225C111.309 337.234 106.813 336.675 102.452 335.563C102.429 335.557 102.407 335.552 102.385 335.546C102.384 335.546 102.383 335.546 102.383 335.546C100.172 334.994 98.0041 334.296 95.8955 333.455C95.8882 333.453 95.8809 333.45 95.8735 333.447L95.5443 334.145ZM95.5443 334.145L95.8221 333.442L95.8268 333.43L94.8235 333.857C94.9328 333.902 95.0468 333.947 95.1608 333.993C95.2743 334.037 95.3878 334.082 95.4966 334.127C95.5156 334.136 95.5253 334.136 95.5443 334.145ZM102.758 334.356C107.02 335.428 111.412 335.971 115.823 335.97H115.824L102.758 334.356ZM102.758 334.356L102.939 333.623M102.758 334.356L120.536 335.018C118.981 335.153 117.407 335.225 115.824 335.225C111.473 335.234 107.141 334.695 102.939 333.623M102.939 333.623L102.753 334.355M102.939 333.623L102.753 334.355M102.753 334.355C102.732 334.35 102.711 334.344 102.69 334.339L102.684 334.338C100.525 333.799 98.4083 333.122 96.3471 332.312L96.6156 331.589L102.753 334.355Z" stroke="#8AD988" stroke-opacity="0.85" stroke-width="4"/>
</g>
<path d="M116.122 483.937C127.551 483.937 136.815 475.143 136.815 464.295C136.815 453.447 127.551 444.653 116.122 444.653C104.693 444.653 95.4285 453.447 95.4285 464.295C95.4285 475.143 104.693 483.937 116.122 483.937Z" fill="#2F2E41"/>
<path d="M99.9696 453.705C103.314 450.531 103.991 446.028 101.483 443.647C98.9753 441.267 94.2314 441.91 90.8874 445.084C87.5435 448.258 86.8658 452.761 89.3737 455.142C91.8817 457.522 96.6256 456.879 99.9696 453.705Z" fill="#2F2E41"/>
<path d="M137.69 447.467C139.083 444.371 136.687 440.432 132.338 438.668C127.989 436.905 123.334 437.985 121.941 441.081C120.548 444.177 122.944 448.117 127.293 449.88C131.642 451.643 136.297 450.563 137.69 447.467Z" fill="#2F2E41"/>
<path d="M140.874 502.396L138.436 498.754C137.402 496.561 135.493 494.846 133.129 493.985C130.765 493.124 128.138 493.187 125.823 494.161C123.509 495.136 121.695 496.941 120.779 499.181C119.864 501.422 119.921 503.916 120.939 506.117L121.632 508.476L122.421 511.154C125.616 510.771 128.767 510.118 131.839 509.202C131.848 509.201 131.856 509.197 131.863 509.191C134.133 508.509 136.35 507.675 138.496 506.695C138.508 506.684 138.52 506.684 138.532 506.673C139.01 506.457 139.476 506.23 139.954 506.003C140.032 505.97 140.108 505.932 140.181 505.89C140.563 505.708 140.946 505.515 141.317 505.323C141.699 505.13 142.069 504.926 142.428 504.71L140.874 502.396Z" fill="#CACACA"/>
<path d="M116.778 485.654C126.478 485.654 134.34 478.191 134.34 468.984C134.34 459.778 126.478 452.314 116.778 452.314C107.079 452.314 99.2159 459.778 99.2159 468.984C99.2159 478.191 107.079 485.654 116.778 485.654Z" fill="#FFB6B6"/>
<path d="M142.141 501.681C140.204 498.623 137.799 495.855 135.006 493.468C133.093 491.845 130.616 490.948 128.05 490.949H103.311C101.885 490.949 100.475 491.226 99.1663 491.763C97.8579 492.301 96.6796 493.087 95.704 494.073C94.7284 495.06 93.9763 496.226 93.4942 497.5C93.0121 498.773 92.8102 500.127 92.901 501.477C92.955 502.239 93.0995 502.992 93.3317 503.723C93.508 504.253 93.7277 504.769 93.9888 505.266L95.2078 507.58C95.3035 507.614 95.3992 507.66 95.4943 507.694C95.5182 507.705 95.5305 507.705 95.5421 507.716C96.044 507.909 96.5464 508.102 97.06 508.284C98.7418 508.894 100.458 509.416 102.199 509.849C105.003 510.564 107.866 511.053 110.756 511.312C112.442 511.46 114.127 511.539 115.824 511.539C117.509 511.539 119.158 511.46 120.808 511.312C121.346 511.267 121.883 511.21 122.421 511.154C125.615 510.771 128.767 510.118 131.839 509.202C131.848 509.201 131.856 509.197 131.863 509.191C134.133 508.509 136.35 507.675 138.496 506.695C138.508 506.684 138.519 506.684 138.532 506.673C139.01 506.457 139.476 506.23 139.954 506.003C140.032 505.97 140.108 505.932 140.181 505.89C140.563 505.708 140.946 505.516 141.316 505.323C141.699 505.13 142.069 504.926 142.428 504.71C142.81 504.517 143.169 504.302 143.539 504.086C143.085 503.235 142.619 502.441 142.141 501.681Z" fill="#111567"/>
<path d="M107.793 493.99C105.503 492.973 102.883 492.858 100.504 493.671C98.1261 494.483 96.1832 496.155 95.1005 498.323L92.9011 501.477L91.8495 502.986L90.2482 505.277C90.5826 505.447 90.9053 505.618 91.2402 505.788L91.682 506.003C92.7102 506.503 93.7496 506.979 94.8257 507.421C94.9447 507.478 95.0766 507.524 95.2079 507.58C95.3036 507.614 95.3993 507.66 95.4944 507.694C95.5183 507.705 95.5306 507.705 95.5422 507.716C96.0441 507.909 96.5465 508.102 97.0601 508.284C98.7419 508.894 100.458 509.417 102.2 509.849C105.004 510.564 107.866 511.053 110.756 511.313L111.593 508.624L112.406 506.06C113.478 503.878 113.593 501.382 112.729 499.119C111.864 496.857 110.089 495.012 107.793 493.99V493.99Z" fill="#060606"/>
<path d="M98.3244 458.499C102.338 461.124 107.101 462.522 111.975 462.503C110.236 463.648 108.257 464.421 106.174 464.769C112.654 466.088 119.352 466.124 125.847 464.874C127.291 464.654 128.684 464.2 129.966 463.531C130.604 463.193 131.161 462.73 131.599 462.174C132.037 461.618 132.346 460.981 132.508 460.304C132.939 457.963 131.018 455.837 129.021 454.404C125.964 452.243 122.439 450.754 118.701 450.045C114.964 449.336 111.107 449.425 107.409 450.305C104.946 450.775 102.704 451.978 101.009 453.738C100.188 454.634 99.693 455.756 99.596 456.94C99.499 458.123 99.8054 459.305 100.47 460.31L98.3244 458.499Z" fill="#2F2E41"/>
<path d="M165.709 444.926C163.184 438.038 159.107 431.757 153.762 426.519C148.417 421.282 141.932 417.214 134.76 414.6C127.588 411.986 119.902 410.888 112.237 411.383C104.573 411.879 97.1142 413.955 90.3819 417.468C83.6496 420.981 77.8056 425.845 73.2576 431.722C68.7095 437.599 65.5668 444.347 64.0487 451.495C62.5305 458.643 62.6735 466.02 64.4675 473.111C66.2616 480.201 69.6637 486.835 74.4364 492.549C74.9021 493.116 75.4046 493.683 75.9065 494.228C75.9352 494.268 75.9672 494.306 76.0022 494.341C77.2399 495.692 78.5565 496.976 79.9459 498.187C80.3042 498.505 80.6748 498.834 81.0576 499.14C81.7742 499.752 82.5154 500.331 83.2921 500.887C83.5909 501.114 83.8896 501.341 84.2007 501.556C85.4075 502.43 86.6744 503.235 87.9653 504.018C87.9874 504.018 88.0086 504.026 88.0248 504.041C88.3954 504.256 88.7782 504.472 89.1604 504.676C89.5187 504.88 89.8893 505.084 90.2482 505.277C90.5826 505.447 90.9053 505.618 91.2403 505.788L91.682 506.003C92.7103 506.502 93.7496 506.979 94.8257 507.421C94.9447 507.478 95.0767 507.523 95.2079 507.58C95.3036 507.614 95.3993 507.659 95.4944 507.693C95.5184 507.705 95.5306 507.705 95.5422 507.716C96.0441 507.909 96.5466 508.102 97.0601 508.283C98.7419 508.894 100.458 509.416 102.2 509.849C105.004 510.564 107.866 511.053 110.756 511.312C112.442 511.46 114.127 511.539 115.824 511.539C117.509 511.539 119.159 511.46 120.808 511.312C121.346 511.267 121.883 511.21 122.421 511.153C125.615 510.771 128.767 510.118 131.839 509.202C131.848 509.201 131.856 509.197 131.863 509.191C134.133 508.509 136.35 507.675 138.496 506.695C138.508 506.684 138.52 506.684 138.532 506.672C139.01 506.457 139.476 506.23 139.954 506.003C140.032 505.97 140.108 505.932 140.181 505.89C140.563 505.708 140.946 505.515 141.317 505.322C141.699 505.13 142.069 504.925 142.428 504.71C142.81 504.517 143.169 504.302 143.539 504.086C143.731 503.973 143.922 503.859 144.113 503.746C144.376 503.598 144.615 503.451 144.878 503.281C145.236 503.065 145.595 502.827 145.941 502.589C146.408 502.282 146.874 501.965 147.328 501.636C147.481 501.541 147.629 501.439 147.77 501.329C156.646 494.925 163.16 486.021 166.382 475.89C169.604 465.76 169.369 454.921 165.709 444.925L165.709 444.926ZM146.025 499.14C145.714 499.378 145.392 499.605 145.07 499.809C144.746 500.036 144.436 500.252 144.113 500.456C143.838 500.637 143.563 500.819 143.277 500.989C143.251 501.011 143.223 501.03 143.193 501.046C142.99 501.182 142.774 501.307 142.571 501.431C142.428 501.511 142.285 501.602 142.141 501.681C141.723 501.931 141.304 502.169 140.874 502.396C140.647 502.532 140.408 502.657 140.181 502.781C140.098 502.827 140.014 502.872 139.93 502.918C139.559 503.11 139.201 503.281 138.842 503.462C138.795 503.496 138.735 503.507 138.699 503.541C138.677 503.542 138.656 503.55 138.639 503.564C138.185 503.791 137.719 504.007 137.253 504.211C135.459 505.031 133.61 505.739 131.719 506.332C131.481 506.412 131.23 506.502 130.99 506.57C127.942 507.488 124.809 508.126 121.632 508.476C121.274 508.522 120.903 508.556 120.533 508.59C118.979 508.726 117.414 508.794 115.824 508.794C114.414 508.794 112.991 508.737 111.593 508.624C108.67 508.393 105.774 507.914 102.941 507.194C100.784 506.661 98.6707 505.978 96.6184 505.152C96.5105 505.107 96.4031 505.073 96.2958 505.028C96.1761 504.982 96.0804 504.948 95.973 504.903C95.8534 504.857 95.7577 504.812 95.6381 504.755C94.8614 504.438 94.0846 504.086 93.3318 503.723C93.2239 503.666 93.1165 503.621 93.0092 503.564L92.5907 503.36C92.3398 503.235 92.0889 503.11 91.8496 502.986C91.049 502.577 90.26 502.135 89.4955 501.681C89.2084 501.511 88.8979 501.329 88.6108 501.148L88.3955 501.012C87.7261 500.581 87.0574 500.15 86.3997 499.684C85.9573 499.367 85.5033 499.061 85.0732 498.732C84.3444 498.21 83.6388 497.654 82.9578 497.075C82.5989 496.792 82.2406 496.474 81.9063 496.179C80.5604 495.002 79.2875 493.752 78.0938 492.435C77.6993 492.004 77.3048 491.573 76.9343 491.12C76.8508 491.029 76.779 490.938 76.695 490.836C70.5336 483.457 66.8272 474.503 66.0486 465.117C65.27 455.731 67.4544 446.337 72.3233 438.133C77.1921 429.93 84.5248 423.289 93.386 419.058C102.247 414.826 112.235 413.196 122.077 414.375C131.918 415.554 141.167 419.488 148.643 425.676C156.119 431.865 161.484 440.026 164.053 449.12C166.622 458.214 166.28 467.829 163.069 476.738C159.858 485.646 153.925 493.445 146.026 499.14H146.025Z" fill="#3F3D56"/>
<path d="M204.185 199.988C185.795 185.258 163.29 175.919 139.41 173.108C115.529 170.297 91.303 174.136 69.6788 184.156C48.0546 194.175 29.9648 209.945 17.6107 229.546C5.25662 249.147 -0.82915 271.734 0.0939602 294.558C1.01707 317.382 8.90925 339.459 22.8102 358.103C36.7111 376.747 56.0213 391.154 78.3912 399.571C100.761 407.988 125.226 410.052 148.809 405.511C172.392 400.971 194.076 390.022 211.223 373.997L363.485 495.948C365.803 497.797 368.799 498.699 371.816 498.455C374.833 498.211 377.625 496.841 379.58 494.646C381.535 492.451 382.493 489.61 382.245 486.746C381.997 483.881 380.562 481.227 378.255 479.365L378.238 479.351L225.977 357.4C243.665 333.304 251.235 303.806 247.204 274.688C243.173 245.569 227.831 218.929 204.185 199.988V199.988ZM194.37 345.657C182.508 359.001 166.744 368.706 149.071 373.546C131.398 378.385 112.61 378.142 95.0832 372.846C77.5562 367.55 62.0772 357.44 50.6037 343.794C39.1302 330.147 32.1775 313.578 30.6247 296.181C29.072 278.785 32.989 261.341 41.8804 246.058C50.7718 230.774 64.2383 218.336 80.5769 210.317C96.9155 202.298 115.392 199.057 133.671 201.006C151.95 202.954 169.209 210.004 183.267 221.263V221.263C202.118 236.361 213.878 257.949 215.96 281.278C218.042 304.606 210.276 327.764 194.37 345.657V345.657Z" fill="#3F3D56"/>
<path opacity="0.3" d="M63.3179 356.196C45.4769 341.905 33.9502 321.768 31.0266 299.784C28.1031 277.8 33.9965 255.576 47.5366 237.525C45.7585 239.225 44.0395 241.005 42.3796 242.866C34.5036 251.726 28.5432 261.971 24.8387 273.017C21.1342 284.064 19.7582 295.694 20.7892 307.246C21.8202 318.797 25.238 330.042 30.8475 340.339C36.4569 350.637 44.1482 359.784 53.4822 367.26C62.8162 374.736 73.6101 380.394 85.2476 383.91C96.8851 387.426 109.138 388.732 121.308 387.754C133.477 386.775 145.324 383.531 156.172 378.206C167.021 372.882 176.658 365.581 184.534 356.722C186.19 354.859 187.75 352.951 189.213 350.998C172.745 366.704 150.657 375.957 127.334 376.92C104.012 377.883 81.1603 370.485 63.3179 356.196Z" fill="black"/>
<path d="M511.145 500.507C512.334 499.129 513.191 497.52 513.654 495.793C514.117 494.067 514.176 492.265 513.826 490.514C513.477 488.764 512.727 487.107 511.63 485.662C510.533 484.216 509.115 483.016 507.477 482.147L479.723 374.32L459.477 380.455L489.446 487.546C488.09 490.255 487.828 493.343 488.71 496.223C489.591 499.103 491.556 501.577 494.23 503.175C496.905 504.772 500.104 505.383 503.221 504.891C506.339 504.4 509.158 502.84 511.145 500.507H511.145Z" fill="#FFB6B6"/>
<path d="M496.8 431.536L482.004 443.652L461.304 460.59L452.161 416.188L451.205 411.571L450.452 407.907L471.427 373.227L488.912 374.179L490.107 374.247L490.131 374.498L490.406 376.823L493.991 407.429L494.075 408.168L496.8 431.536Z" fill="#8AD988" fill-opacity="0.85"/>
<path d="M400.09 732.926L385.439 732.924L378.467 679.28L400.093 679.281L400.09 732.926Z" fill="#FFB6B6"/>
<path d="M403.827 746.407L356.582 746.405V745.838C356.583 741.209 358.52 736.769 361.969 733.496C365.417 730.223 370.094 728.384 374.971 728.384H374.973L403.828 728.385L403.827 746.407Z" fill="white"/>
<path d="M553.068 734.06L538.417 734.059L531.446 680.414L553.072 680.415L553.068 734.06Z" fill="#FFB6B6"/>
<path d="M556.806 747.541L509.561 747.54V746.972C509.561 742.343 511.499 737.904 514.947 734.63C518.396 731.357 523.073 729.518 527.95 729.518H527.951L556.806 729.519L556.806 747.541Z" fill="white"/>
<path d="M564.78 712.705L525.34 718.377L467.961 534.055L407.021 719.512L362.8 713.84L420.167 498.298V481.281L427.936 455.757L427.123 448.848L421.47 400.533L419.02 379.58L418.861 378.226C418.728 377.09 419.045 375.948 419.75 375.022C420.456 374.096 421.499 373.452 422.677 373.216L441.082 369.54H471.164L488.912 374.18L490.131 374.497L490.681 374.645L490.406 376.823L486.247 409.926L486.02 411.741L482.004 443.652L481.119 450.652C515.779 474.475 516.974 498.298 516.974 498.298L564.78 712.705Z" fill="#7FD387"/>
<path d="M452.488 355.187C468.7 355.187 481.842 342.713 481.842 327.325C481.842 311.937 468.7 299.462 452.488 299.462C436.276 299.462 423.134 311.937 423.134 327.325C423.134 342.713 436.276 355.187 452.488 355.187Z" fill="#FFB6B6"/>
<path d="M483.319 444.249L425.251 451.457L426.336 459.331L484.404 452.123L483.319 444.249Z" fill="#3F3D56"/>
<path d="M347.362 453.831C347.917 454.172 348.443 454.554 348.935 454.973L406.369 441.076L410.288 427.924L431.971 430.943L427.419 454.865C427.051 456.798 426.033 458.565 424.517 459.902C423.001 461.238 421.069 462.072 419.011 462.278L351.95 468.981C350.857 471.165 349.089 472.982 346.882 474.19C344.675 475.397 342.133 475.938 339.593 475.741C337.054 475.543 334.639 474.617 332.668 473.084C330.697 471.552 329.264 469.486 328.561 467.162C327.857 464.838 327.915 462.366 328.728 460.074C329.54 457.782 331.069 455.779 333.11 454.332C335.151 452.885 337.608 452.062 340.154 451.972C342.699 451.883 345.214 452.531 347.362 453.831V453.831Z" fill="#FFB6B6"/>
<path d="M435.704 380.317L425.545 372.943C422.799 371.954 419.035 374.764 418.374 377.481L404.033 433.068L433.911 453.488L438.094 447.249L435.704 380.317Z" fill="#8AD988" fill-opacity="0.85"/>
<g opacity="0.2">
<path opacity="0.2" d="M493.991 407.43C491.456 408.385 488.871 409.218 486.247 409.926C485.41 410.164 484.55 410.391 483.701 410.606C478.108 412.079 472.36 412.962 466.562 413.238C464.067 413.338 461.567 413.274 459.081 413.045C456.412 412.793 453.775 412.299 451.205 411.571C451.121 411.548 451.026 411.525 450.942 411.503C445.598 410.062 440.699 407.42 436.66 403.8C435.757 402.966 434.915 402.075 434.138 401.134C431.907 398.539 430.269 395.532 429.331 392.303C428.393 389.074 428.174 385.695 428.688 382.382C428.788 381.781 428.924 381.187 429.095 380.601C429.545 379.004 430.141 377.448 430.876 375.949C431.198 375.246 431.557 374.554 431.939 373.874L445.444 369.54H471.164L488.912 374.18L490.107 374.248L490.131 374.497L490.681 374.645L490.406 376.823L493.991 407.43Z" fill="black"/>
</g>
<path d="M429.995 304.257C424.505 303.619 418.481 304.07 414.202 307.397C409.923 310.723 408.542 317.638 412.593 321.212C416.18 324.376 421.788 323.632 426.592 324.532C430.73 325.412 434.437 327.585 437.121 330.702C439.804 333.82 441.308 337.701 441.392 341.726C441.32 353.268 429.651 362.008 427.555 373.378C426.124 381.137 429.572 389.303 435.532 394.784C441.493 400.265 449.687 403.227 457.942 404.029C466.198 404.832 474.546 403.606 482.569 401.593C490.626 399.571 498.557 396.703 505.318 392.077C512.078 387.452 517.619 380.931 519.79 373.294C521.961 365.656 520.402 356.9 514.809 351.036C508.404 344.322 497.749 342.012 492.209 334.637C485.998 326.37 488.297 314.596 483.27 305.633C479.914 299.649 473.56 295.567 466.787 293.417C460.014 291.267 452.781 290.842 445.642 290.634C441.89 290.525 438.023 290.488 434.527 291.787C431.031 293.085 427.958 296.044 427.777 299.603C427.596 303.163 429.995 304.257 429.995 304.257Z" fill="#2F2E41"/>
<path d="M704.843 748.459H153.248C152.864 748.459 152.495 748.301 152.224 748.019C151.952 747.738 151.8 747.356 151.8 746.958C151.8 746.56 151.952 746.178 152.224 745.897C152.495 745.615 152.864 745.457 153.248 745.457H704.843C705.227 745.457 705.595 745.615 705.867 745.897C706.138 746.178 706.291 746.56 706.291 746.958C706.291 747.356 706.138 747.738 705.867 748.019C705.595 748.301 705.227 748.459 704.843 748.459Z" fill="#943C51"/>
<path d="M176.596 704.982C182.299 706.443 188.422 706.808 194.375 706.044C200.328 705.28 205.911 703.412 210.585 700.62C222.49 693.34 226.227 681.346 229.259 670.24L238.241 637.391L219.436 646.826C205.911 653.611 192.083 660.614 182.718 670.442C173.353 680.27 169.266 693.686 176.79 704.32" fill="#7FD387"/>
<path d="M178.023 745.729C176.077 735.521 174.076 725.184 175.441 714.866C176.653 705.704 180.534 696.755 188.438 689.417C192.633 685.53 197.737 682.199 203.522 679.575C205.03 678.89 206.417 680.611 204.916 681.293C194.908 685.848 187.167 692.573 182.809 700.501C177.996 709.316 177.223 718.926 178.059 728.29C178.561 733.953 179.624 739.578 180.696 745.199C180.782 745.453 180.73 745.721 180.55 745.949C180.371 746.177 180.077 746.346 179.73 746.423C179.376 746.492 178.999 746.457 178.681 746.327C178.363 746.197 178.128 745.982 178.029 745.728L178.023 745.729Z" fill="#943C51" fill-opacity="0.8"/>
<path d="M173.231 703.981C168.908 705.442 164.266 705.808 159.754 705.044C155.241 704.28 151.009 702.412 147.465 699.619C138.441 692.339 135.608 680.346 133.309 669.239L126.5 636.39L140.756 645.826C151.008 652.61 161.491 659.613 168.59 669.441C175.689 679.269 178.787 692.685 173.084 703.319" fill="#7FD387"/>
<path d="M178.196 745.88C178.545 735.443 178.919 724.872 176.984 714.52C175.264 705.328 171.733 696.509 165.594 689.557C162.337 685.875 158.509 682.809 154.282 680.498C153.179 679.896 152.393 681.717 153.49 682.318C160.805 686.331 166.773 692.673 170.533 700.431C174.692 709.06 176.152 718.731 176.484 728.249C176.687 734.005 176.502 739.755 176.31 745.502C176.275 745.764 176.337 746.033 176.482 746.252C176.627 746.472 176.845 746.626 177.091 746.683C177.341 746.731 177.596 746.674 177.802 746.524C178.009 746.373 178.149 746.141 178.192 745.879L178.196 745.88Z" fill="#943C51" fill-opacity="0.8"/>
</g>
<defs>
<filter id="filter0_d" x="62.0042" y="237.705" width="107.637" height="105.265" filterUnits="userSpaceOnUse" color-interpolation-filters="sRGB">
<feFlood flood-opacity="0" result="BackgroundImageFix"/>
<feColorMatrix in="SourceAlpha" type="matrix" values="0 0 0 0 0 0 0 0 0 0 0 0 0 0 0 0 0 0 127 0" result="hardAlpha"/>
<feOffset dy="4"/>
<feGaussianBlur stdDeviation="0.5"/>
<feComposite in2="hardAlpha" operator="out"/>
<feColorMatrix type="matrix" values="0 0 0 0 0 0 0 0 0 0 0 0 0 0 0 0 0 0 0.25 0"/>
<feBlend mode="normal" in2="BackgroundImageFix" result="effect1_dropShadow"/>
<feBlend mode="normal" in="SourceGraphic" in2="effect1_dropShadow" result="shape"/>
</filter>
<clipPath id="clip0">
<rect width="706" height="748" fill="white"/>
</clipPath>
</defs>
</svg>
